<?xml version="1.0" encoding="UTF-8" standalone="no"?>
<svg
   xmlns:dc="http://purl.org/dc/elements/1.1/"
   xmlns:cc="http://creativecommons.org/ns#"
   xmlns:rdf="http://www.w3.org/1999/02/22-rdf-syntax-ns#"
   xmlns:svg="http://www.w3.org/2000/svg"
   xmlns="http://www.w3.org/2000/svg"
   xmlns:sodipodi="http://sodipodi.sourceforge.net/DTD/sodipodi-0.dtd"
   xmlns:inkscape="http://www.inkscape.org/namespaces/inkscape"
   width="100%"
   height="100%"
   viewBox="0 0 32 32"
   version="1.1"
   xml:space="preserve"
   style="fill-rule:evenodd;clip-rule:evenodd;stroke-linejoin:round;stroke-miterlimit:1.41421;"
   id="svg11"
   sodipodi:docname="8ball.svg"
   inkscape:version="0.92.3 (2405546, 2018-03-11)"><defs
   id="defs15" /><sodipodi:namedview
   pagecolor="#ffffff"
   bordercolor="#666666"
   borderopacity="1"
   objecttolerance="10"
   gridtolerance="10"
   guidetolerance="10"
   inkscape:pageopacity="0"
   inkscape:pageshadow="2"
   inkscape:window-width="1920"
   inkscape:window-height="991"
   id="namedview13"
   showgrid="false"
   inkscape:zoom="14.75"
   inkscape:cx="19.730728"
   inkscape:cy="13.136064"
   inkscape:window-x="1920"
   inkscape:window-y="0"
   inkscape:window-maximized="1"
   inkscape:current-layer="svg11" />
<metadata
   id="metadata2">
<rdf:RDF>

     <rdf:Description
   rdf:about="">
       <dc:title>Mutant Standard emoji v0.1.0</dc:title>
     </rdf:Description>

    <cc:work
   rdf:about="">
        <cc:license
   rdf:resource="http://creativecommons.org/licenses/by-nc-sa/4.0/" />
        <cc:attributionName>Dzuk</cc:attributionName>
        <cc:attributionURL>http://mutant.tech/</cc:attributionURL>
    </cc:work>

<cc:Work
   rdf:about=""><dc:format>image/svg+xml</dc:format><dc:type
     rdf:resource="http://purl.org/dc/dcmitype/StillImage" /><dc:title></dc:title></cc:Work></rdf:RDF>
</metadata>
<g
   id="emoji" /><g
   id="g4623"><rect
     style="fill:none"
     height="32"
     width="32"
     y="0"
     x="0"
     id="black_circle" /><g
     id="outline"><circle
       id="circle5"
       r="16"
       cy="16"
       cx="16" /></g><circle
     id="circle8"
     style="clip-rule:evenodd;fill:#404040;fill-rule:evenodd;stroke-linejoin:round;stroke-miterlimit:1.41420996"
     r="14"
     cy="16"
     cx="16" /><g
     id="emoji-3"
     style="clip-rule:evenodd;fill:#f2f2f2;fill-rule:evenodd;stroke-linejoin:round;stroke-miterlimit:1.41420996"
     transform="matrix(0.50526417,0,0,0.57142857,57.216927,11.022824)"><ellipse
       ry="14"
       rx="15.833302"
       id="circle8-6"
       style="fill:#f2f2f2;stroke-width:1.06346107"
       cy="8.7100582"
       cx="-81.575005" /></g><path
     id="path15"
     style="clip-rule:evenodd;fill:#000000;fill-rule:nonzero;stroke-width:0.68170607;stroke-linejoin:round;stroke-miterlimit:1.41420996"
     d="M 13.08764,21.06487 C 12.362098,20.440998 12,19.595483 12,18.528331 V 18.29233 c 0,-0.562308 0.14198,-1.07058 0.426625,-1.525488 0.284651,-0.454907 0.683427,-0.805831 1.196338,-1.053469 -0.423909,-0.21343 -0.758148,-0.522634 -1.004074,-0.926917 -0.245249,-0.404284 -0.368209,-0.865353 -0.368209,-1.38183 v -0.185378 c 0,-0.629353 0.150812,-1.188234 0.45176,-1.677352 0.301634,-0.488426 0.736419,-0.868082 1.305708,-1.137608 C 14.577449,10.134762 15.2466,10 16.016985,10 c 0.769695,0 1.438859,0.134762 2.008155,0.404288 0.569294,0.269526 1.004077,0.649182 1.3057,1.137608 0.30096,0.489118 0.451763,1.047999 0.451763,1.677352 v 0.185378 c 0,0.505531 -0.125679,0.963177 -0.376348,1.373623 -0.251359,0.409753 -0.589001,0.721694 -1.012916,0.935124 0.513585,0.258576 0.909654,0.614979 1.188184,1.070573 C 19.86074,17.238856 20,17.736176 20,18.275225 v 0.236001 c 0,1.078787 -0.362098,1.929772 -1.08764,2.553644 C 18.18682,21.688055 17.216039,22 16,22 14.783961,22 13.81318,21.688055 13.08764,21.06487 Z m 4.11752,-6.606766 c 0.279213,-0.253107 0.41848,-0.598565 0.41848,-1.037055 v -0.185386 c 0,-0.426861 -0.142659,-0.760687 -0.426633,-1.002849 -0.284647,-0.241482 -0.677988,-0.361877 -1.180022,-0.361877 -0.513585,0 -0.912365,0.120395 -1.197015,0.361877 -0.28465,0.242162 -0.426631,0.575988 -0.426631,1.002849 v 0.185386 c 0,0.43849 0.139264,0.783948 0.418481,1.037055 0.27854,0.252418 0.680701,0.378971 1.205165,0.378971 0.512902,0 0.908971,-0.126553 1.188175,-0.378971 z m 0.16712,5.241359 c 0.324057,-0.286626 0.48574,-0.688173 0.48574,-1.205337 v -0.252421 c 0,-0.494584 -0.161683,-0.88245 -0.48574,-1.162922 -0.323361,-0.281157 -0.77513,-0.421393 -1.355295,-0.421393 -0.580165,0 -1.035328,0.140236 -1.364135,0.421393 -0.329475,0.280472 -0.493879,0.668338 -0.493879,1.162922 v 0.252421 c 0,0.517164 0.161687,0.918711 0.485051,1.205337 0.324044,0.286626 0.781245,0.4296 1.372963,0.4296 0.580165,0 1.031934,-0.142974 1.355295,-0.4296 z"
     inkscape:connector-curvature="0" /><path
     id="path13"
     style="clip-rule:evenodd;fill:none;fill-rule:evenodd;stroke:#616161;stroke-width:1.9979533px;stroke-linecap:round;stroke-linejoin:round;stroke-miterlimit:1.5;stroke-opacity:1"
     d="m 16.013205,3.9990745 c 0,0 9.98e-4,0 0.002,0 3.178744,0 6.22762,1.2627063 8.475318,3.5104033 2.247696,2.2476976 3.510403,5.2965732 3.510403,8.4753172 0,9.99e-4 0,0.002 0,0.002"
     inkscape:connector-curvature="0" /></g></svg>