<?xml version="1.0" encoding="UTF-8" standalone="no"?>
<svg
   xmlns:dc="http://purl.org/dc/elements/1.1/"
   xmlns:cc="http://creativecommons.org/ns#"
   xmlns:rdf="http://www.w3.org/1999/02/22-rdf-syntax-ns#"
   xmlns:svg="http://www.w3.org/2000/svg"
   xmlns="http://www.w3.org/2000/svg"
   xmlns:sodipodi="http://sodipodi.sourceforge.net/DTD/sodipodi-0.dtd"
   xmlns:inkscape="http://www.inkscape.org/namespaces/inkscape"
   width="100%"
   height="100%"
   viewBox="0 0 32 32"
   version="1.1"
   xml:space="preserve"
   style="fill-rule:evenodd;clip-rule:evenodd;stroke-linejoin:round;stroke-miterlimit:1.41421;"
   id="svg38"
   sodipodi:docname="dfate.svg"
   inkscape:version="0.92.3 (2405546, 2018-03-11)"
   inkscape:export-filename="/home/oct2pus/Coding/Go/VriskaBot/emoji/dfate.png"
   inkscape:export-xdpi="768"
   inkscape:export-ydpi="768"><defs
   id="defs42" /><sodipodi:namedview
   pagecolor="#ffffff"
   bordercolor="#666666"
   borderopacity="1"
   objecttolerance="10"
   gridtolerance="10"
   guidetolerance="10"
   inkscape:pageopacity="0"
   inkscape:pageshadow="2"
   inkscape:window-width="1920"
   inkscape:window-height="957"
   id="namedview40"
   showgrid="false"
   inkscape:zoom="14.75"
   inkscape:cx="-16.21422"
   inkscape:cy="19.579615"
   inkscape:window-x="0"
   inkscape:window-y="28"
   inkscape:window-maximized="1"
   inkscape:current-layer="emoji" />
<metadata
   id="metadata2">
<rdf:RDF>

     <rdf:Description
   rdf:about="">
       <dc:title>Mutant Standard emoji v0.3.0</dc:title>
     </rdf:Description>

    <cc:work
   rdf:about="">
        <cc:license
   rdf:resource="http://creativecommons.org/licenses/by-nc-sa/4.0/" />
        <cc:attributionName>Dzuk</cc:attributionName>
        <cc:attributionURL>http://mutant.tech/</cc:attributionURL>
    </cc:work>

<cc:Work
   rdf:about=""><dc:format>image/svg+xml</dc:format><dc:type
     rdf:resource="http://purl.org/dc/dcmitype/StillImage" /><dc:title></dc:title></cc:Work></rdf:RDF>
</metadata>
<rect
   id="d6"
   x="0"
   y="0"
   width="32"
   height="32"
   style="fill:none;" /><g
   id="outline"><path
     d="M16.086,0.619l0.086,0.004l0.086,0.006l0.086,0.009l0.086,0.011l0.085,0.013l0.085,0.016l0.085,0.019l0.084,0.021l0.084,0.024l0.083,0.026l0.083,0.028l0.082,0.031l0.081,0.033l0.08,0.036l0.067,0.032l11.028,5.515l0.079,0.041l0.091,0.052l0.09,0.055l0.088,0.058l0.084,0.061l0.083,0.063l0.08,0.067l0.078,0.069l0.075,0.071l0.072,0.073l0.07,0.076l0.066,0.078l0.064,0.081l0.061,0.082l0.059,0.084l0.055,0.087l0.053,0.088l0.049,0.09l0.046,0.091l0.043,0.093l0.04,0.095l0.037,0.096l0.034,0.098l0.03,0.098l0.027,0.101l0.023,0.101l0.02,0.102l0.017,0.104l0.013,0.104l0.009,0.105l0.005,0.105l0.002,0.088l0,13.8l-0.002,0.088l-0.005,0.105l-0.009,0.105l-0.013,0.104l-0.017,0.104l-0.02,0.102l-0.023,0.101l-0.027,0.1l-0.03,0.099l-0.034,0.098l-0.037,0.096l-0.04,0.095l-0.043,0.093l-0.046,0.092l-0.049,0.089l-0.053,0.088l-0.055,0.087l-0.059,0.084l-0.061,0.082l-0.064,0.081l-0.066,0.078l-0.07,0.076l-0.072,0.073l-0.075,0.072l-0.078,0.068l-0.08,0.067l-0.083,0.063l-0.085,0.061l-0.087,0.058l-0.089,0.055l-0.092,0.052l-0.079,0.041l-11.028,5.515l-0.067,0.032l-0.08,0.036l-0.081,0.033l-0.082,0.031l-0.083,0.028l-0.083,0.026l-0.084,0.024l-0.084,0.021l-0.085,0.019l-0.085,0.016l-0.085,0.013l-0.086,0.011l-0.086,0.009l-0.086,0.006l-0.086,0.004l-0.086,0.001l-0.086,-0.001l-0.086,-0.004l-0.086,-0.006l-0.086,-0.009l-0.086,-0.011l-0.085,-0.013l-0.085,-0.016l-0.085,-0.019l-0.084,-0.021l-0.084,-0.024l-0.083,-0.026l-0.083,-0.028l-0.082,-0.031l-0.081,-0.033l-0.08,-0.036l-0.067,-0.032l-11.028,-5.515l-0.079,-0.041l-0.092,-0.052l-0.089,-0.055l-0.087,-0.058l-0.085,-0.061l-0.083,-0.063l-0.08,-0.067l-0.078,-0.068l-0.075,-0.072l-0.072,-0.073l-0.07,-0.076l-0.066,-0.078l-0.064,-0.081l-0.062,-0.082l-0.058,-0.084l-0.055,-0.087l-0.053,-0.088l-0.049,-0.089l-0.046,-0.092l-0.043,-0.093l-0.04,-0.095l-0.037,-0.096l-0.034,-0.098l-0.03,-0.099l-0.027,-0.1l-0.023,-0.101l-0.02,-0.102l-0.017,-0.104l-0.013,-0.104l-0.009,-0.105l-0.005,-0.105l-0.002,-0.088l0,-13.8l0.002,-0.088l0.005,-0.105l0.009,-0.105l0.013,-0.104l0.017,-0.103l0.02,-0.103l0.023,-0.101l0.027,-0.1l0.03,-0.099l0.034,-0.098l0.037,-0.096l0.04,-0.095l0.043,-0.093l0.046,-0.091l0.049,-0.09l0.053,-0.088l0.055,-0.087l0.058,-0.084l0.062,-0.082l0.064,-0.081l0.066,-0.078l0.07,-0.076l0.072,-0.073l0.075,-0.071l0.078,-0.069l0.08,-0.067l0.083,-0.063l0.084,-0.061l0.088,-0.058l0.09,-0.055l0.091,-0.053l0.079,-0.04l11.028,-5.515l0.067,-0.032l0.08,-0.036l0.081,-0.033l0.082,-0.031l0.083,-0.028l0.083,-0.026l0.084,-0.024l0.084,-0.021l0.085,-0.019l0.085,-0.016l0.085,-0.013l0.086,-0.011l0.086,-0.009l0.086,-0.006l0.086,-0.004l0.086,-0.001l0.086,0.001Zm-10.086,9.117l0,12.528l10,5l10,-5l0,-12.528l-10,-5l-10,5Z"
     id="path5" /></g><g
   id="emoji"><path
     d="M4.553,8.224c-0.339,0.169 -0.553,0.515 -0.553,0.894c0,2.432 0,11.332 0,13.764c0,0.379 0.214,0.725 0.553,0.894c2.043,1.022 9.143,4.572 11,5.5c0.281,0.141 0.613,0.141 0.894,0c1.857,-0.928 8.957,-4.478 11,-5.5c0.339,-0.169 0.553,-0.515 0.553,-0.894c0,-2.432 0,-11.332 0,-13.764c0,-0.379 -0.214,-0.725 -0.553,-0.894c-2.043,-1.022 -9.143,-4.572 -11,-5.5c-0.281,-0.141 -0.613,-0.141 -0.894,0c-1.857,0.928 -8.957,4.478 -11,5.5Z"
     style="fill:#008282;fill-opacity:1"
     id="path8" /><clipPath
     id="_clip1"><path
       d="M4.553,8.224c-0.339,0.169 -0.553,0.515 -0.553,0.894c0,2.432 0,11.332 0,13.764c0,0.379 0.214,0.725 0.553,0.894c2.043,1.022 9.143,4.572 11,5.5c0.281,0.141 0.613,0.141 0.894,0c1.857,-0.928 8.957,-4.478 11,-5.5c0.339,-0.169 0.553,-0.515 0.553,-0.894c0,-2.432 0,-11.332 0,-13.764c0,-0.379 -0.214,-0.725 -0.553,-0.894c-2.043,-1.022 -9.143,-4.572 -11,-5.5c-0.281,-0.141 -0.613,-0.141 -0.894,0c-1.857,0.928 -8.957,4.478 -11,5.5Z"
       id="path10" /></clipPath><g
     clip-path="url(#_clip1)"
     id="g15"><path
       d="M28,8.5l0,-6.5l-24,0l0,6.5c0,0 9.377,4.688 11.553,5.776c0.281,0.141 0.613,0.141 0.894,0c2.176,-1.088 11.553,-5.776 11.553,-5.776Z"
       style="fill:#009294;fill-opacity:1"
       id="path13" /></g><path
     d="M16.029,2.618l0.028,0.002l0.029,0.002l0.029,0.003l0.028,0.003l0.029,0.005l0.028,0.005l0.028,0.006l0.028,0.007l0.028,0.008l0.028,0.009l0.027,0.009l0.028,0.011l0.027,0.011l0.027,0.012l0.026,0.013l11,5.5l0.032,0.016l0.03,0.017l0.03,0.019l0.029,0.019l0.029,0.02l0.027,0.022l0.027,0.022l0.025,0.023l0.025,0.023l0.025,0.025l0.023,0.025l0.022,0.026l0.021,0.027l0.021,0.027l0.019,0.029l0.019,0.028l0.017,0.03l0.017,0.03l0.015,0.03l0.014,0.031l0.014,0.032l0.012,0.032l0.011,0.032l0.01,0.033l0.009,0.034l0.008,0.033l0.007,0.034l0.005,0.035l0.004,0.034l0.004,0.035l0.001,0.036l0.001,0.035l0,13.764l-0.001,0.035l-0.001,0.036l-0.004,0.035l-0.004,0.034l-0.005,0.035l-0.007,0.034l-0.008,0.033l-0.009,0.034l-0.01,0.033l-0.011,0.032l-0.012,0.032l-0.014,0.032l-0.014,0.031l-0.015,0.03l-0.017,0.03l-0.017,0.03l-0.019,0.028l-0.019,0.029l-0.021,0.027l-0.021,0.027l-0.022,0.026l-0.023,0.025l-0.025,0.025l-0.025,0.023l-0.025,0.023l-0.027,0.022l-0.027,0.022l-0.029,0.02l-0.029,0.019l-0.03,0.019l-0.03,0.017l-0.032,0.016l-11,5.5l-0.026,0.013l-0.027,0.012l-0.027,0.011l-0.028,0.011l-0.027,0.009l-0.028,0.009l-0.028,0.008l-0.028,0.007l-0.028,0.006l-0.028,0.005l-0.029,0.005l-0.028,0.003l-0.029,0.003l-0.029,0.002l-0.028,0.002l-0.029,0l-0.029,0l-0.028,-0.002l-0.029,-0.002l-0.029,-0.003l-0.028,-0.003l-0.029,-0.005l-0.028,-0.005l-0.028,-0.006l-0.028,-0.007l-0.028,-0.008l-0.028,-0.009l-0.027,-0.009l-0.028,-0.011l-0.027,-0.011l-0.027,-0.012l-0.026,-0.013l-11,-5.5l-0.032,-0.016l-0.03,-0.017l-0.03,-0.019l-0.029,-0.019l-0.029,-0.02l-0.027,-0.022l-0.027,-0.022l-0.025,-0.023l-0.025,-0.023l-0.025,-0.025l-0.023,-0.025l-0.022,-0.026l-0.021,-0.027l-0.021,-0.027l-0.019,-0.029l-0.019,-0.028l-0.017,-0.03l-0.017,-0.03l-0.015,-0.03l-0.014,-0.031l-0.014,-0.032l-0.012,-0.032l-0.011,-0.032l-0.01,-0.033l-0.009,-0.034l-0.008,-0.033l-0.007,-0.034l-0.005,-0.035l-0.004,-0.034l-0.004,-0.035l-0.001,-0.036l-0.001,-0.035l0,-13.764l0.001,-0.035l0.001,-0.036l0.004,-0.035l0.004,-0.034l0.005,-0.035l0.007,-0.034l0.008,-0.033l0.009,-0.034l0.01,-0.033l0.011,-0.032l0.012,-0.032l0.014,-0.032l0.014,-0.031l0.015,-0.03l0.017,-0.03l0.017,-0.03l0.019,-0.028l0.019,-0.029l0.021,-0.027l0.021,-0.027l0.022,-0.026l0.023,-0.025l0.025,-0.025l0.025,-0.023l0.025,-0.023l0.027,-0.022l0.027,-0.022l0.029,-0.02l0.029,-0.019l0.03,-0.019l0.03,-0.017l0.032,-0.016l11,-5.5l0.026,-0.013l0.027,-0.012l0.027,-0.011l0.028,-0.011l0.027,-0.009l0.028,-0.009l0.028,-0.008l0.028,-0.007l0.028,-0.006l0.028,-0.005l0.029,-0.005l0.028,-0.003l0.029,-0.003l0.029,-0.002l0.028,-0.002l0.029,0l0.029,0Zm-0.036,1.003l-10.985,5.493l-0.008,0.004l0,0.009l0,13.746l0,0.009l0.008,0.004l10.985,5.493l0.007,0.003l0.007,-0.003l10.985,-5.493l0.008,-0.004l0,-0.009l0,-13.746l0,-0.009l-0.008,-0.004l-10.985,-5.493l-0.007,-0.003l-0.007,0.003Z"
     style="fill:#008282;fill-opacity:1"
     id="path17" /><path
     inkscape:connector-curvature="0"
     d="m 15.889018,7.7968134 3.780458,-1.7232501 c 0.638197,0.2909103 1.275719,0.5815121 1.913915,0.8724223 L 17.802934,8.6692358 21.583391,10.392486 19.669476,11.264908 15.889018,9.5416583 12.10856,11.264908 10.194644,10.392486 13.975101,8.6692358 10.194644,6.9459856 12.10856,6.0735633 Z"
     style="clip-rule:evenodd;fill:#ffffff;fill-rule:evenodd;stroke-width:0.45692557;stroke-linejoin:round;stroke-miterlimit:1.41420996"
     id="path13-3" /><path
     inkscape:connector-curvature="0"
     d="m 26.214953,16.354117 0.03608,2.113946 -6.971453,3.220024 -0.03608,-2.113951 z"
     style="clip-rule:evenodd;fill:#ffffff;fill-rule:evenodd;stroke-width:0.43310696;stroke-linejoin:round;stroke-miterlimit:1.41420996"
     id="path13-3-6"
     sodipodi:nodetypes="ccccc" /></g></svg>